<svg width="376" height="48" viewBox="0 0 376 48" fill="none" xmlns="http://www.w3.org/2000/svg">
<path d="M8.43182 0.636364V47.1818H-2.86102e-06V0.636364H8.43182ZM48.7443 15.5C48.3655 14.2727 47.8428 13.1742 47.1761 12.2045C46.5246 11.2197 45.7367 10.3788 44.8125 9.68182C43.9034 8.98485 42.858 8.46212 41.6761 8.11364C40.4943 7.75 39.2064 7.56818 37.8125 7.56818C35.3125 7.56818 33.0852 8.19697 31.1307 9.45455C29.1761 10.7121 27.6383 12.5606 26.517 15C25.411 17.4242 24.858 20.3788 24.858 23.8636C24.858 27.3788 25.411 30.3561 26.517 32.7955C27.6231 35.2348 29.161 37.0909 31.1307 38.3636C33.1004 39.6212 35.3883 40.25 37.9943 40.25C40.358 40.25 42.4034 39.7955 44.1307 38.8864C45.8731 37.9773 47.214 36.6894 48.1534 35.0227C49.0928 33.3409 49.5625 31.3712 49.5625 29.1136L51.4716 29.4091H38.8352V22.8182H57.7216V28.4091C57.7216 32.3939 56.8731 35.8409 55.1761 38.75C53.4792 41.6591 51.1458 43.9015 48.1761 45.4773C45.2064 47.0379 41.7973 47.8182 37.9489 47.8182C33.661 47.8182 29.8958 46.8561 26.6534 44.9318C23.4261 42.9924 20.9034 40.2424 19.0852 36.6818C17.2822 33.1061 16.3807 28.8636 16.3807 23.9545C16.3807 20.197 16.911 16.8409 17.9716 13.8864C19.0473 10.9318 20.5473 8.42424 22.4716 6.36364C24.3958 4.28788 26.6534 2.71212 29.2443 1.63636C31.8352 0.545455 34.6534 0 37.6989 0C40.2746 0 42.6761 0.378788 44.9034 1.13636C47.1307 1.87879 49.108 2.93939 50.8352 4.31818C52.5776 5.69697 54.0095 7.33333 55.1307 9.22727C56.2519 11.1212 56.9867 13.2121 57.3352 15.5H48.7443ZM104.125 0.636364V47.1818H96.625L74.6932 15.4773H74.3068V47.1818H65.875V0.636364H73.4205L95.3295 32.3636H95.7386V0.636364H104.125ZM121.744 0.636364V47.1818H113.312V0.636364H121.744ZM128.83 7.70455V0.636364H165.966V7.70455H151.58V47.1818H143.216V7.70455H128.83ZM173.125 47.1818V0.636364H203.398V7.70455H181.557V20.3409H201.83V27.4091H181.557V40.1136H203.58V47.1818H173.125ZM210.5 5.63636V0.636364H245.409V5.63636H230.773V47.1818H225.136V5.63636H210.5ZM254.108 47.1818V0.636364H282.199V5.63636H259.744V21.3636H280.744V26.3636H259.744V42.1818H282.562V47.1818H254.108ZM329.812 15.1818H324.176C323.843 13.5606 323.259 12.1364 322.426 10.9091C321.608 9.68182 320.608 8.65152 319.426 7.81818C318.259 6.9697 316.964 6.33333 315.54 5.90909C314.116 5.48485 312.631 5.27273 311.085 5.27273C308.267 5.27273 305.714 5.98485 303.426 7.40909C301.153 8.83333 299.343 10.9318 297.994 13.7045C296.661 16.4773 295.994 19.8788 295.994 23.9091C295.994 27.9394 296.661 31.3409 297.994 34.1136C299.343 36.8864 301.153 38.9849 303.426 40.4091C305.714 41.8333 308.267 42.5455 311.085 42.5455C312.631 42.5455 314.116 42.3333 315.54 41.9091C316.964 41.4849 318.259 40.8561 319.426 40.0227C320.608 39.1742 321.608 38.1364 322.426 36.9091C323.259 35.6667 323.843 34.2424 324.176 32.6364H329.812C329.388 35.0152 328.616 37.1439 327.494 39.0227C326.373 40.9015 324.979 42.5 323.312 43.8182C321.646 45.1212 319.775 46.1136 317.699 46.7955C315.638 47.4773 313.434 47.8182 311.085 47.8182C307.116 47.8182 303.585 46.8485 300.494 44.9091C297.403 42.9697 294.972 40.2121 293.199 36.6364C291.426 33.0606 290.54 28.8182 290.54 23.9091C290.54 19 291.426 14.7576 293.199 11.1818C294.972 7.60606 297.403 4.84849 300.494 2.90909C303.585 0.969697 307.116 0 311.085 0C313.434 0 315.638 0.340909 317.699 1.02273C319.775 1.70455 321.646 2.70455 323.312 4.02273C324.979 5.32576 326.373 6.91667 327.494 8.79546C328.616 10.6591 329.388 12.7879 329.812 15.1818ZM338.92 47.1818V0.636364H344.557V21.3636H369.375V0.636364H375.011V47.1818H369.375V26.3636H344.557V47.1818H338.92Z" fill="#E6E6E6"/>
</svg>
