<svg width="75" height="100" viewBox="0 0 75 100" fill="none" xmlns="http://www.w3.org/2000/svg">
<path d="M37.5 100C58.2125 100 75 87.5 75 65.625C75 56.25 71.875 40.625 59.375 28.125C60.9375 37.5 51.5625 40.625 51.5625 40.625C56.25 25 43.75 3.125 25 0C27.2312 12.5 28.125 25 12.5 37.5C4.6875 43.75 0 54.5562 0 65.625C0 87.5 16.7875 100 37.5 100ZM37.5 93.75C27.1438 93.75 18.75 87.5 18.75 76.5625C18.75 71.875 20.3125 64.0625 26.5625 57.8125C25.7812 62.5 31.25 65.625 31.25 65.625C28.9062 57.8125 34.375 45.3125 43.75 43.75C42.6312 50 42.1875 56.25 50 62.5C53.9062 65.625 56.25 71.025 56.25 76.5625C56.25 87.5 47.8562 93.75 37.5 93.75Z" fill="#E6E6E6"/>
</svg>
